<?xml version="1.0" encoding="UTF-8" standalone="no"?>
<!-- Created with Inkscape (http://www.inkscape.org/) -->

<svg
   xmlns:dc="http://purl.org/dc/elements/1.1/"
   xmlns:cc="http://creativecommons.org/ns#"
   xmlns:rdf="http://www.w3.org/1999/02/22-rdf-syntax-ns#"
   xmlns:svg="http://www.w3.org/2000/svg"
   xmlns="http://www.w3.org/2000/svg"
   xmlns:sodipodi="http://sodipodi.sourceforge.net/DTD/sodipodi-0.dtd"
   xmlns:inkscape="http://www.inkscape.org/namespaces/inkscape"
   width="62.409084mm"
   height="18.575233mm"
   viewBox="0 0 62.409084 18.575233"
   version="1.1"
   id="svg8"
   inkscape:version="0.92.5 (2060ec1f9f, 2020-04-08)"
   sodipodi:docname="logo.svg">
  <defs
     id="defs2">
    <clipPath
       clipPathUnits="userSpaceOnUse"
       id="clipPath1127">
      <rect
         style="opacity:1;fill:#ffffff;fill-opacity:1;stroke:#64b702;stroke-width:20.43711662;stroke-miterlimit:4;stroke-dasharray:none;stroke-dashoffset:0;stroke-opacity:1;paint-order:markers fill stroke"
         id="rect1129"
         width="264.83386"
         height="383.63583"
         x="-139.1443"
         y="-183.15987"
         transform="scale(-1,1)" />
    </clipPath>
  </defs>
  <sodipodi:namedview
     id="base"
     pagecolor="#ffffff"
     bordercolor="#666666"
     borderopacity="1.0"
     inkscape:pageopacity="0.0"
     inkscape:pageshadow="2"
     inkscape:zoom="3.959798"
     inkscape:cx="130.42515"
     inkscape:cy="-24.105484"
     inkscape:document-units="mm"
     inkscape:current-layer="layer1"
     showgrid="false"
     fit-margin-top="0"
     fit-margin-left="0"
     fit-margin-right="0"
     fit-margin-bottom="0"
     inkscape:window-width="2560"
     inkscape:window-height="1375"
     inkscape:window-x="1"
     inkscape:window-y="1440"
     inkscape:window-maximized="1" />
  <metadata
     id="metadata5">
    <rdf:RDF>
      <cc:Work
         rdf:about="">
        <dc:format>image/svg+xml</dc:format>
        <dc:type
           rdf:resource="http://purl.org/dc/dcmitype/StillImage" />
        <dc:title></dc:title>
      </cc:Work>
    </rdf:RDF>
  </metadata>
  <g
     inkscape:label="Layer 1"
     inkscape:groupmode="layer"
     id="layer1"
     transform="translate(-64.80141,-150.12905)">
    <g
       aria-label="GLIM"
       style="font-style:normal;font-weight:normal;font-size:10.58333302px;line-height:1.25;font-family:sans-serif;letter-spacing:0px;word-spacing:0px;fill:#2e2e2e;fill-opacity:1;stroke:none;stroke-width:0.26458332"
       id="text862-7-1">
      <path
         d="m 78.015861,153.4032 h -6.2992 q -1.309511,0 -2.4384,0.65476 -1.106311,0.63218 -1.964266,1.64818 -0.857956,0.99342 -1.444978,2.21262 -0.587022,1.19662 -0.835378,2.32551 -0.270933,1.15147 -0.225778,2.34809 0.06773,1.17404 0.519289,2.12231 0.451556,0.94827 1.309511,1.55787 0.880534,0.58702 2.2352,0.58702 h 6.028267 l 1.715911,-7.47325 h -3.138311 l -1.038578,4.58329 h -2.528711 q -0.722489,0 -1.106311,-0.38382 -0.383822,-0.4064 -0.564444,-0.97084 -0.158045,-0.58703 -0.135467,-1.24178 0.02258,-0.65476 0.135467,-1.17405 0.158044,-0.72249 0.4064,-1.4224 0.248355,-0.72249 0.632177,-1.28693 0.4064,-0.56444 0.970845,-0.90311 0.587022,-0.36125 1.444978,-0.36125 h 5.667022 z"
         style="font-style:normal;font-variant:normal;font-weight:normal;font-stretch:normal;font-size:22.57777786px;font-family:'Redline Italic';-inkscape-font-specification:'Redline Italic, ';fill:#2e2e2e;fill-opacity:1;stroke-width:0.26458332"
         id="path841"
         inkscape:connector-curvature="0" />
      <path
         d="m 82.982934,153.4032 -2.4384,10.5664 h 5.915377 l -0.677333,2.88996 h -9.121422 l 3.115733,-13.45636 z"
         style="font-style:normal;font-variant:normal;font-weight:normal;font-stretch:normal;font-size:22.57777786px;font-family:'Redline Italic';-inkscape-font-specification:'Redline Italic, ';fill:#2e2e2e;fill-opacity:1;stroke-width:0.26458332"
         id="path843"
         inkscape:connector-curvature="0" />
      <path
         d="m 90.659343,153.4032 -3.115733,13.45636 h 3.206044 l 3.115734,-13.45636 z"
         style="font-style:normal;font-variant:normal;font-weight:normal;font-stretch:normal;font-size:22.57777786px;font-family:'Redline Italic';-inkscape-font-specification:'Redline Italic, ';fill:#2e2e2e;fill-opacity:1;stroke-width:0.26458332"
         id="path845"
         inkscape:connector-curvature="0" />
      <path
         d="m 95.626439,153.4032 -3.115733,13.45636 h 3.206045 l 1.896533,-8.19574 0.6096,8.19574 h 3.138306 l 4.56072,-8.48925 -1.96427,8.48925 h 3.20604 l 3.11574,-13.45636 h -5.10258 l -4.2672,8.3312 -0.24836,-8.3312 z"
         style="font-style:normal;font-variant:normal;font-weight:normal;font-stretch:normal;font-size:22.57777786px;font-family:'Redline Italic';-inkscape-font-specification:'Redline Italic, ';fill:#2e2e2e;fill-opacity:1;stroke-width:0.26458332"
         id="path847"
         inkscape:connector-curvature="0" />
    </g>
    <g
       style="overflow:visible"
       id="g1020"
       transform="matrix(-0.06711159,0,0,0.04841892,118.70845,159.33154)"
       clip-path="url(#clipPath1127)"
       inkscape:export-xdpi="416.75983"
       inkscape:export-ydpi="416.75983">
      <rect
         id="rect994"
         x="-250"
         y="-250"
         width="500"
         height="500"
         style="fill:#000000;fill-opacity:0" />
      <svg
         id="svg1004"
         style="overflow:visible"
         width="500"
         height="500"
         viewBox="-250 -250 500 500"
         x="-250"
         y="-250"
         version="1.1">
        <g
           id="g1002"
           style="fill:#ffffff;stroke-linejoin:round"
           transform="translate(-1.4113588)">
          <path
             id="path996"
             d="m 0.573,-167.0006 c -19.3351,26.4 -32.065,65.4915 -21.9561,138.555999 -27.7326,-16.0749 -39.0908,-34.2041 -50.2565,-63.7162 -6.02466,91.0875 -18.5774,96.0255 -22.6892,148.037 C -99.53068,121.6765 -55.1101,164.2952 -4.4611,166.8562 54.8303,169.85362 94.4027,126.1282 94.7384,64.453199 95.2801,-35.053001 0.454,-47.352801 0.573,-166.9998 Z"
             inkscape:connector-curvature="0"
             style="fill:#ff5f00;stroke:none;stroke-linecap:butt;stroke-linejoin:round" />
          <path
             id="path998"
             d="m 12.610999,-29.056001 c -13.08,14.4741 -23.834,30.6891 -22.9058,55.6471 -11.2108,-6.11231 -17.8874,-11.0162 -24.703,-21.6811 -6.86444,27.5168 -14.4564,43.4151 -19.7412,73.2773 -5.80837,32.820501 20.1312,56.497301 51.409,60.352201 36.6149,4.51261 53.3236,-16.1193 55.9003,-47.110401 4.157269,-50.0005 -44.6284,-60.3367 -39.9594,-120.485 z"
             inkscape:connector-curvature="0"
             style="fill:#ff9b00;stroke:none;stroke-linecap:butt;stroke-linejoin:round" />
          <path
             id="path1000"
             d="m 0.573,-167.0006 c -19.3351,26.4 -32.065,65.4915 -21.9561,138.555999 -27.7326,-16.0749 -39.0908,-34.2041 -50.2565,-63.7162 -6.02467,91.0875 -18.5774,96.0255 -22.6892,148.037 C -99.53068,121.6765 -55.1101,164.2952 -4.4611,166.8562 54.8303,169.85364 94.4027,126.1282 94.7384,64.453199 95.2801,-35.053001 0.454,-47.352801 0.573,-166.9998 Z"
             inkscape:connector-curvature="0"
             style="fill:none;stroke:#444444;stroke-width:12;stroke-linecap:butt;stroke-linejoin:round;stroke-opacity:1" />
        </g>
      </svg>
    </g>
  </g>
</svg>
